# xmcd CD database file
#
# Track frame offsets:
#	150
#	14536
#	25511
#	36885
#	46551
#	60235
#	73778
#	86557
#	98723
#	111107
#	121653
#	138129
#	147414
#
# Disc length: 2104 seconds
#
# Revision: 0
# Processed by: cddbd v1.5.1PL0 Copyright (c) Steve Scherf et al.
# Submitted via: CDex 1.51
#
DISCID=9d08360d
DTITLE=Lee Conway - Country Classics Disc 2
DYEAR=1900
DGENRE=Country
TTITLE0=Detroit City
TTITLE1=Country Nights, Country Days
TTITLE2=Movin' On
TTITLE3=Six Days On The Road
TTITLE4=Your Cheatin' Heart
TTITLE5=Things In The Swamp
TTITLE6=I Fought The Law
TTITLE7=Sixteen Tons
TTITLE8=Me and Bobby McGee
TTITLE9=It'll Be Me
TTITLE10=Just Another Cowboy Song
TTITLE11=Truck Drivin' Man
TTITLE12=King Of The Road
EXTD=
EXTT0=
EXTT1=
EXTT2=
EXTT3=
EXTT4=
EXTT5=
EXTT6=
EXTT7=
EXTT8=
EXTT9=
EXTT10=
EXTT11=
EXTT12=
PLAYORDER=
